HIERARCHY
ROOT Hips
{
	OFFSET 0.000000 35.069874 -0.029489
	CHANNELS 6 Xposition Yposition Zposition Xrotation Yrotation Zrotation 
	JOINT Spine
	{
		OFFSET 0.000000 6.876060 0.125662
		CHANNELS 3 Xrotation Yrotation Zrotation
		JOINT Spine1
		{
			OFFSET 0.000000 5.730046 0.104717
			CHANNELS 3 Xrotation Yrotation Zrotation
			JOINT Spine1_split
			{
				OFFSET 0.000000 5.730046 0.104717
				CHANNELS 3 Xrotation Yrotation Zrotation
				JOINT Spine2
				{
					OFFSET 0.000000 5.730046 0.104717
					CHANNELS 3 Xrotation Yrotation Zrotation
					JOINT Neck
					{
						OFFSET 0.000000 10.314075 0.188489
						CHANNELS 3 Xrotation Yrotation Zrotation
						JOINT Head
						{
							OFFSET 0.000000 7.643753 -2.377445
							CHANNELS 3 Xrotation Yrotation Zrotation
							JOINT HeadTop_End
							{
								OFFSET 0.000000 43.788605 -13.619637
								CHANNELS 3 Xrotation Yrotation Zrotation
								End Site
								{
									OFFSET 0.000000 0.000000 0.000000
								}
							}
						}
					}
					JOINT LeftShoulder
					{
						OFFSET 2.196093 4.412501 0.087498
						CHANNELS 3 Xrotation Yrotation Zrotation
						JOINT LeftShoulder_split
						{
							OFFSET 2.196093 4.412501 0.087498
							CHANNELS 3 Xrotation Yrotation Zrotation
							JOINT LeftArm
							{
								OFFSET 8.774866 -2.970879 -0.026997
								CHANNELS 3 Xrotation Yrotation Zrotation
								JOINT LeftForeArm
								{
									OFFSET 8.450586 -0.797432 -0.648343
									CHANNELS 3 Xrotation Yrotation Zrotation
									JOINT LeftHand
									{
										OFFSET 18.458662 0.962311 0.193148
										CHANNELS 3 Xrotation Yrotation Zrotation
										JOINT LeftHandThumb1
										{
											OFFSET 2.379990 -1.333382 2.680594
											CHANNELS 3 Xrotation Yrotation Zrotation
											JOINT LeftHandThumb2
											{
												OFFSET 1.903984 -1.066746 2.144473
												CHANNELS 3 Xrotation Yrotation Zrotation
												JOINT LeftHandThumb3
												{
													OFFSET 0.966393 -1.489639 2.964555
													CHANNELS 3 Xrotation Yrotation Zrotation
													JOINT LeftHandThumb4
													{
														OFFSET 1.205181 -0.823021 1.625701
														CHANNELS 3 Xrotation Yrotation Zrotation
														End Site
														{
															OFFSET 0.000000 0.000000 0.000000
														}
													}
												}
											}
										}
										JOINT LeftHandIndex1
										{
											OFFSET 7.830624 -0.787468 2.563931
											CHANNELS 3 Xrotation Yrotation Zrotation
											JOINT LeftHandIndex2
											{
												OFFSET 3.312897 -0.052605 1.515312
												CHANNELS 3 Xrotation Yrotation Zrotation
												JOINT LeftHandIndex3
												{
													OFFSET 3.460667 -0.207008 1.581951
													CHANNELS 3 Xrotation Yrotation Zrotation
													JOINT LeftHandIndex4
													{
														OFFSET 2.183182 0.110458 0.999585
														CHANNELS 3 Xrotation Yrotation Zrotation
														End Site
														{
															OFFSET 0.000000 0.000000 0.000000
														}
													}
												}
											}
										}
										JOINT LeftHandMiddle1
										{
											OFFSET 8.556145 -0.261200 0.258753
											CHANNELS 3 Xrotation Yrotation Zrotation
											JOINT LeftHandMiddle2
											{
												OFFSET 3.828903 -0.489014 -0.111505
												CHANNELS 3 Xrotation Yrotation Zrotation
												JOINT LeftHandMiddle3
												{
													OFFSET 3.696209 -0.166595 -0.107596
													CHANNELS 3 Xrotation Yrotation Zrotation
													JOINT LeftHandMiddle4
													{
														OFFSET 2.259281 0.534500 -0.065675
														CHANNELS 3 Xrotation Yrotation Zrotation
														End Site
														{
															OFFSET 0.000000 0.000000 0.000000
														}
													}
												}
											}
										}
										JOINT LeftHandRing1
										{
											OFFSET 8.509293 -0.556679 -3.044941
											CHANNELS 3 Xrotation Yrotation Zrotation
											JOINT LeftHandRing2
											{
												OFFSET 2.995171 -0.303261 -0.843591
												CHANNELS 3 Xrotation Yrotation Zrotation
												JOINT LeftHandRing3
												{
													OFFSET 2.968273 -0.101997 -0.834287
													CHANNELS 3 Xrotation Yrotation Zrotation
													JOINT LeftHandRing4
													{
														OFFSET 1.521358 -0.461468 -0.418735
														CHANNELS 3 Xrotation Yrotation Zrotation
														End Site
														{
															OFFSET 0.000000 0.000000 0.000000
														}
													}
												}
											}
										}
									}
								}
							}
						}
					}
					JOINT RightShoulder
					{
						OFFSET -2.196075 4.412512 0.070694
						CHANNELS 3 Xrotation Yrotation Zrotation
						JOINT RightShoulder_split
						{
							OFFSET -2.196075 4.412512 0.070694
							CHANNELS 3 Xrotation Yrotation Zrotation
							JOINT RightArm
							{
								OFFSET -8.774886 -2.970947 -0.094209
								CHANNELS 3 Xrotation Yrotation Zrotation
								JOINT RightForeArm
								{
									OFFSET -8.450586 -0.797386 -0.330665
									CHANNELS 3 Xrotation Yrotation Zrotation
									JOINT RightHand
									{
										OFFSET -18.458664 0.962341 0.025780
										CHANNELS 3 Xrotation Yrotation Zrotation
										JOINT RightHandThumb1
										{
											OFFSET -2.390282 -1.240040 2.604684
											CHANNELS 3 Xrotation Yrotation Zrotation
											JOINT RightHandThumb2
											{
												OFFSET -1.912228 -0.992111 2.083740
												CHANNELS 3 Xrotation Yrotation Zrotation
												JOINT RightHandThumb3
												{
													OFFSET -0.876358 -1.555370 2.930126
													CHANNELS 3 Xrotation Yrotation Zrotation
													JOINT RightHandThumb4
													{
														OFFSET -1.227077 -0.755932 1.835223
														CHANNELS 3 Xrotation Yrotation Zrotation
														End Site
														{
															OFFSET 0.000000 0.000000 0.000000
														}
													}
												}
											}
										}
										JOINT RightHandIndex1
										{
											OFFSET -8.716801 -0.633743 3.098187
											CHANNELS 3 Xrotation Yrotation Zrotation
											JOINT RightHandIndex2
											{
												OFFSET -3.319706 -0.240585 1.198087
												CHANNELS 3 Xrotation Yrotation Zrotation
												JOINT RightHandIndex3
												{
													OFFSET -3.153255 -0.154724 1.138827
													CHANNELS 3 Xrotation Yrotation Zrotation
													JOINT RightHandIndex4
													{
														OFFSET -1.818684 -0.003197 0.655154
														CHANNELS 3 Xrotation Yrotation Zrotation
														End Site
														{
															OFFSET 0.000000 0.000000 0.000000
														}
													}
												}
											}
										}
										JOINT RightHandMiddle1
										{
											OFFSET -8.158691 -0.528496 0.196552
											CHANNELS 3 Xrotation Yrotation Zrotation
											JOINT RightHandMiddle2
											{
												OFFSET -3.890194 -0.261169 -0.136423
												CHANNELS 3 Xrotation Yrotation Zrotation
												JOINT RightHandMiddle3
												{
													OFFSET -3.903057 -0.179909 -0.137173
													CHANNELS 3 Xrotation Yrotation Zrotation
													JOINT RightHandMiddle4
													{
														OFFSET -2.366261 0.198380 -0.083987
														CHANNELS 3 Xrotation Yrotation Zrotation
														End Site
														{
															OFFSET 0.000000 0.000000 0.000000
														}
													}
												}
											}
										}
										JOINT RightHandRing1
										{
											OFFSET -7.616104 -0.395126 -2.681268
											CHANNELS 3 Xrotation Yrotation Zrotation
											JOINT RightHandRing2
											{
												OFFSET -3.235790 -0.462120 -1.101476
												CHANNELS 3 Xrotation Yrotation Zrotation
												JOINT RightHandRing3
												{
													OFFSET -3.179264 -0.138618 -1.084847
													CHANNELS 3 Xrotation Yrotation Zrotation
													JOINT RightHandRing4
													{
														OFFSET -1.963291 -0.101624 -0.668250
														CHANNELS 3 Xrotation Yrotation Zrotation
														End Site
														{
															OFFSET 0.000000 0.000000 0.000000
														}
													}
												}
											}
										}
									}
								}
							}
						}
					}
				}
			}
		}
	}
	JOINT LeftUpLeg
	{
		OFFSET 10.205382 -3.823519 0.155145
		CHANNELS 3 Xrotation Yrotation Zrotation
		JOINT LeftLeg
		{
			OFFSET 0.283732 -12.998343 0.567794
			CHANNELS 3 Xrotation Yrotation Zrotation
			JOINT LeftFoot
			{
				OFFSET -1.058953 -10.688869 -2.184322
				CHANNELS 3 Xrotation Yrotation Zrotation
				JOINT LeftToeBase
				{
					OFFSET 0.108145 -7.191069 7.560211
					CHANNELS 3 Xrotation Yrotation Zrotation
					JOINT LeftToe_End
					{
						OFFSET 0.070226 0.081726 4.490266
						CHANNELS 3 Xrotation Yrotation Zrotation
						End Site
						{
							OFFSET 0.000000 0.000000 0.000000
						}
					}
				}
			}
		}
	}
	JOINT RightUpLeg
	{
		OFFSET -10.205383 -3.823513 0.005508
		CHANNELS 3 Xrotation Yrotation Zrotation
		JOINT RightLeg
		{
			OFFSET -0.283728 -12.998341 0.610627
			CHANNELS 3 Xrotation Yrotation Zrotation
			JOINT RightFoot
			{
				OFFSET 1.058956 -10.688892 -1.945833
				CHANNELS 3 Xrotation Yrotation Zrotation
				JOINT RightToeBase
				{
					OFFSET -0.108150 -7.191040 7.372945
					CHANNELS 3 Xrotation Yrotation Zrotation
					JOINT RightToe_End
					{
						OFFSET -0.070229 0.081738 4.479398
						CHANNELS 3 Xrotation Yrotation Zrotation
						End Site
						{
							OFFSET 0.000000 0.000000 0.000000
						}
					}
				}
			}
		}
	}
}
MOTION
Frames: 4
Frame Time: 0.016667
-0.181938 33.542969 -0.061224 -3.658183 -0.319397 -2.980947 4.755437 1.400397 0.151740 2.572228 0.188490 0.804269 0.000000 0.000000 0.000000 2.570295 0.195339 0.808666 -1.342907 -0.050186 -0.205820 -4.952821 -0.368062 -0.267113 -0.000000 0.000000 0.000000 0.348351 0.827241 -4.818966 0.000000 0.000000 0.000000 -9.347104 -28.099625 -72.426882 -0.394570 -1.252098 -8.361290 5.245497 -1.511418 -0.875497 12.935775 30.404894 3.521376 0.094471 30.343716 12.287520 -2.284699 -5.588661 -3.722974 -0.000002 -0.000001 -0.000002 12.989439 24.604964 -27.646692 7.879299 1.901422 -16.424686 9.466202 0.840294 -20.241616 0.000001 -0.000001 0.000001 0.782164 1.802889 -20.509118 0.981105 4.957149 -35.821351 0.118969 4.761835 -43.466245 -0.000000 0.000001 0.000002 -5.634456 -9.850630 -25.133720 -8.213375 11.954997 -45.851244 -4.214904 8.667014 -26.243805 -0.000002 -0.000000 -0.000003 0.341716 -1.804781 5.968877 0.000000 0.000000 0.000000 -9.257977 9.245170 70.744408 -0.722731 5.964067 8.404684 27.003588 3.236753 -4.910808 14.040433 -31.461453 -1.606468 -4.426947 -29.522929 -15.796050 -0.276953 7.057029 5.475402 -0.000001 -0.000002 0.000001 14.650571 -23.008670 30.544900 5.519116 -1.134685 14.562955 4.552620 -0.812369 12.278912 0.000002 0.000001 -0.000000 3.604294 -6.030046 30.944520 0.118675 -3.617876 24.536111 -0.960635 -3.485341 27.338828 0.000000 -0.000001 0.000002 -4.637570 5.807790 30.551784 -9.480777 -9.855345 37.289442 -8.625731 -8.623107 28.994542 0.000000 -0.000002 -0.000001 -2.935077 13.909655 12.064575 30.337921 7.183182 1.910572 -22.057384 7.609637 -12.348722 -4.613091 -0.000026 0.000014 0.000001 0.000002 0.000000 -8.902794 -4.049656 -4.668150 22.756274 -8.230023 -2.543635 -6.160484 -14.797202 10.845557 -4.229720 0.000014 0.000012 -0.000001 -0.000002 0.000000 
-0.179970 33.542675 -0.067652 -3.645023 -0.359145 -2.992921 4.724918 1.419353 0.160958 2.581958 0.191239 0.804231 0.000000 0.000000 0.000000 2.580009 0.197996 0.808711 -1.369562 -0.055531 -0.193555 -4.967042 -0.376295 -0.278138 -0.000000 0.000000 -0.000000 0.347458 0.837256 -4.812673 0.000000 0.000000 0.000000 -9.243742 -27.950845 -72.404506 -0.383414 -1.133790 -8.360945 5.430140 -1.466167 -0.941145 12.930222 30.444557 3.538354 0.094460 30.343716 12.287520 -2.309888 -5.617074 -3.727097 0.000004 0.000004 -0.000003 12.967089 24.622839 -27.587542 7.879281 1.901451 -16.424672 9.467466 0.840281 -20.244295 0.000003 -0.000001 -0.000000 0.797467 1.836221 -20.405209 0.979328 4.953829 -35.798439 0.115097 4.751631 -43.402983 -0.000000 0.000001 0.000002 -5.562145 -9.804032 -24.961809 -8.210481 11.939043 -45.802996 -4.197437 8.630863 -26.104831 -0.000000 -0.000004 0.000002 0.343144 -1.818718 5.979002 0.000000 0.000000 0.000000 -9.212516 9.177370 70.746990 -0.719565 5.930842 8.404376 27.012000 3.189417 -4.931391 14.061333 -31.445907 -1.577656 -4.426967 -29.522943 -15.796062 -0.292563 7.074052 5.476326 -0.000002 -0.000003 0.000000 14.646926 -22.973616 30.582889 5.519081 -1.134685 14.562873 4.543769 -0.811060 12.255560 0.000001 0.000001 -0.000002 3.593302 -6.010917 30.970458 0.118693 -3.617858 24.535969 -0.962819 -3.483064 27.320723 -0.000001 -0.000006 0.000003 -4.645470 5.815601 30.559912 -9.480770 -9.855280 37.289220 -8.625201 -8.620494 28.985427 0.000001 -0.000004 -0.000000 -2.962964 13.939042 12.098943 30.364842 7.171013 1.868195 -22.075460 7.604240 -12.324565 -4.622632 -0.000030 0.000010 -0.000000 -0.000004 -0.000000 -8.943947 -4.048704 -4.672275 22.736650 -8.232248 -2.516586 -6.124196 -14.751532 10.820769 -4.230758 0.000004 0.000013 -0.000000 0.000000 -0.000000 
-0.178219 33.542042 -0.074225 -3.639266 -0.404769 -3.006068 4.708930 1.444118 0.170153 2.590687 0.194722 0.803345 0.000000 0.000000 0.000000 2.588720 0.201399 0.807921 -1.393972 -0.062377 -0.180074 -4.978303 -0.387753 -0.294713 0.000000 -0.000000 -0.000000 0.346968 0.834390 -4.807879 0.000000 0.000000 0.000000 -9.161999 -27.792069 -72.384016 -0.372258 -1.015146 -8.360623 5.569881 -1.431461 -1.007438 12.923482 30.485706 3.557198 0.094470 30.343716 12.287518 -2.339379 -5.650281 -3.731895 0.000001 -0.000000 -0.000003 12.945460 24.644094 -27.526914 7.879293 1.901422 -16.424679 9.468738 0.840291 -20.246967 -0.000002 -0.000002 -0.000002 0.815345 1.875543 -20.282086 0.976620 4.948824 -35.763946 0.109024 4.735603 -43.303642 -0.000001 0.000004 0.000002 -5.476864 -9.752231 -24.747923 -8.206065 11.914897 -45.729967 -4.170102 8.574728 -25.888724 -0.000000 0.000001 -0.000001 0.344001 -1.820543 5.987897 0.000000 0.000000 0.000000 -9.165547 9.126886 70.747516 -0.718149 5.916110 8.404227 27.009891 3.164441 -4.945166 14.078300 -31.430482 -1.553408 -4.426949 -29.522909 -15.796033 -0.304244 7.086686 5.476978 0.000000 -0.000003 0.000002 14.651541 -22.926490 30.653452 5.519085 -1.134700 14.562827 4.537437 -0.810106 12.238890 0.000001 -0.000001 0.000001 3.580376 -5.987076 31.016593 0.118679 -3.617827 24.535824 -0.964460 -3.481540 27.307983 0.000000 0.000003 -0.000002 -4.657080 5.825879 30.573928 -9.480716 -9.855213 37.289035 -8.625002 -8.618778 28.979181 0.000000 -0.000001 -0.000000 -2.980347 13.967700 12.131158 30.392607 7.159138 1.831505 -22.095865 7.607244 -12.304442 -4.631211 -0.000022 0.000010 -0.000000 -0.000001 -0.000000 -8.981808 -4.044964 -4.673236 22.719704 -8.234135 -2.493327 -6.087409 -14.701731 10.797268 -4.230490 -0.000003 0.000010 0.000001 -0.000001 0.000000 
-0.176572 33.541073 -0.080874 -3.640758 -0.450915 -3.018463 4.707904 1.471014 0.179489 2.598470 0.198444 0.801675 0.000000 0.000000 0.000000 2.596481 0.205050 0.806348 -1.416040 -0.070100 -0.166236 -4.986067 -0.401495 -0.314482 -0.000000 0.000000 0.000000 0.346668 0.819108 -4.798066 0.000000 0.000000 0.000000 -9.097442 -27.627048 -72.368436 -0.361533 -0.901304 -8.360318 5.658386 -1.403657 -1.072277 12.915772 30.523388 3.576183 0.094467 30.343720 12.287514 -2.370509 -5.685290 -3.736935 0.000004 0.000004 0.000001 12.924672 24.665857 -27.467435 7.879281 1.901428 -16.424648 9.469954 0.840288 -20.249522 0.000003 -0.000002 -0.000000 0.833347 1.916104 -20.145459 0.973100 4.942310 -35.718905 0.101051 4.714395 -43.172301 -0.000000 0.000005 0.000003 -5.385390 -9.701717 -24.502067 -8.200238 11.883357 -45.634522 -4.133792 8.500999 -25.604269 -0.000000 -0.000000 0.000000 0.344243 -1.806880 5.997122 0.000000 0.000000 0.000000 -9.116364 9.086266 70.743841 -0.718050 5.915162 8.404192 27.002584 3.157565 -4.956722 14.091598 -31.416722 -1.533943 -4.426963 -29.522933 -15.796064 -0.312087 7.095204 5.477399 -0.000000 -0.000002 0.000001 14.663566 -22.868959 30.752572 5.519055 -1.134684 14.562788 4.533718 -0.809573 12.229046 0.000000 -0.000001 -0.000000 3.566413 -5.959987 31.081438 0.118665 -3.617811 24.535679 -0.966028 -3.480892 27.300399 -0.000002 0.000001 0.000001 -4.670883 5.836441 30.595218 -9.480710 -9.855107 37.288769 -8.625498 -8.618157 28.975237 -0.000000 0.000003 0.000001 -2.988927 13.991680 12.156783 30.421096 7.148631 1.803757 -22.116760 7.618338 -12.288651 -4.637692 -0.000015 0.000008 0.000000 -0.000001 -0.000000 -9.015790 -4.039540 -4.672768 22.710002 -8.235459 -2.475561 -6.053952 -14.652813 10.777692 -4.228605 -0.000000 0.000011 -0.000000 -0.000001 -0.000000 
